<?xml version="1.0" encoding="utf-8"?>
<!-- Generator: Adobe Illustrator 23.0.0, SVG Export Plug-In . SVG Version: 6.00 Build 0)  -->
<svg version="1.1" id="Layer_1" xmlns="http://www.w3.org/2000/svg" xmlns:xlink="http://www.w3.org/1999/xlink" x="0px" y="0px"
	 viewBox="0 0 48 48" style="enable-background:new 0 0 48 48;" xml:space="preserve">
<style type="text/css">
	.st0{fill:#FFFFFF;}
</style>
<path d="M0,48h24.1C37.2,48,48,37.2,48,24v0C48,10.8,37.2,0,24.1,0H0V48z"/>
<path class="st0" d="M20.2,10C19,10,18,11,18,12.3s1,2.3,2.2,2.3s2.2-1,2.2-2.3C22.5,11,21.5,10,20.2,10z M10.6,17.5l6.6,0.9v6.9
	L14,36.3c-0.2,0.7,0.2,1.4,0.9,1.6c0.7,0.2,1.4-0.2,1.5-0.9l3.3-10.1h1l3,10.3c0.2,0.7,1,1,1.6,0.7c0.6-0.3,1-1,0.8-1.7l-2.8-10.9
	v-7l6.1-0.9c0.6-0.1,1.1-0.6,1-1.3c-0.1-0.7-0.6-1.1-1.2-1.1l-7.4,0.7h-3.3l-7.9-0.7c-0.6,0-1.1,0.5-1.2,1.1
	C9.5,16.9,10,17.4,10.6,17.5z"/>
</svg>
