<svg xmlns="http://www.w3.org/2000/svg" width="60" height="60" viewBox="0 0 50 50"><defs><style>.cls-1{fill:#fff;}</style></defs><g id="Layer_2" data-name="Layer 2"><path class="cls-1" d="M22.39,18.53a.43.43,0,0,1-.36-.17l-2.93-3.5A1.34,1.34,0,0,0,18,14.37a1.67,1.67,0,0,0-1.16.48l-4.12,3.46a1,1,0,0,1-.63.23H9.38a.5.5,0,0,0-.46.37l-.54,2.57a.29.29,0,0,0,.3.36h4.91a1.25,1.25,0,0,0,.86-.3l3-2.48a.44.44,0,0,1,.32-.12.48.48,0,0,1,.36.16l2,2.34a1.15,1.15,0,0,0,.94.4h4.4a.46.46,0,0,0,.43-.36l.55-2.58a.28.28,0,0,0-.28-.36Z"/><path class="cls-1" d="M25.39,28.21a.49.49,0,0,0,.45-.37l.54-2.58a.29.29,0,0,0-.3-.35h-4.9a1.2,1.2,0,0,0-.86.3l-3,2.47a.43.43,0,0,1-.32.12.48.48,0,0,1-.36-.15l-2-2.34a1.15,1.15,0,0,0-.94-.41H9.36a.47.47,0,0,0-.43.36l-.55,2.59a.29.29,0,0,0,.29.36h3.7a.43.43,0,0,1,.36.17l2.94,3.51a1.31,1.31,0,0,0,1,.49,1.69,1.69,0,0,0,1.17-.48L22,28.44a.93.93,0,0,1,.64-.23Z"/><path class="cls-1" d="M35.73,36.4h-.81V31.61a.21.21,0,0,0-.21-.21H33a.47.47,0,0,0-.35.17l-1.8,2.33L29,36.23a.79.79,0,0,0-.13.39v1.54a.22.22,0,0,0,.22.22h3.65v1.73a.22.22,0,0,0,.22.22h1.72a.21.21,0,0,0,.21-.22V38.38h.81a.21.21,0,0,0,.21-.22V36.62A.21.21,0,0,0,35.73,36.4Zm-3-1.87V36.4H31.15l.14-.17.67-.87.81-1Z"/><path class="cls-1" d="M49.33,31.4h-6a.21.21,0,0,0-.22.21v2a.22.22,0,0,0,.22.21h2.87a.14.14,0,0,1,.14.2l-2.16,6.14a.14.14,0,0,0,.15.2h2.63a.29.29,0,0,0,.27-.21l2.28-8.52A.15.15,0,0,0,49.33,31.4Z"/><path class="cls-1" d="M28.4,39V38.5a.22.22,0,0,0-.22-.22H24.8A3.73,3.73,0,0,1,26,37.49c2-.93,2.43-2.33,2.36-3.14a3,3,0,0,0-5.94-.83,3.55,3.55,0,0,0-.12.65v.07a.43.43,0,0,1,0,0,.23.23,0,0,0,.2.12h1.63a.24.24,0,0,0,.21-.16v0a.83.83,0,0,1,.16-.36,1,1,0,0,1,.8-.41,1,1,0,0,1,1,1,1.37,1.37,0,0,1-.06.41,1.5,1.5,0,0,1-.95.74,4.05,4.05,0,0,0-3,3.77v.78h0a.21.21,0,0,0,.22.21h5.64a.24.24,0,0,0,.21-.16.13.13,0,0,0,0-.06v-.9h0Z"/><path class="cls-1" d="M42,28.79h-1.4a.41.41,0,0,0-.36.27L36.6,42.66a.21.21,0,0,0,.21.28h1.4a.4.4,0,0,0,.36-.28l3.68-13.6A.2.2,0,0,0,42,28.79Z"/><path class="cls-1" d="M14.19,39.85A16.16,16.16,0,1,1,29.63,13.44l-2.79-.39a.4.4,0,0,0-.45.34.39.39,0,0,0,.34.44l3.74.52a.51.51,0,0,0,.38-.15.48.48,0,0,0,.12-.37l0-3.44a.39.39,0,0,0-.4-.39.39.39,0,0,0-.39.4l0,2.45A16.92,16.92,0,0,0,6.94,10.69,17,17,0,0,0,8.51,38.44,16.86,16.86,0,0,0,14,40.62a.39.39,0,0,0,.47-.3A.4.4,0,0,0,14.19,39.85Z"/></g></svg>