<svg xmlns="http://www.w3.org/2000/svg" viewBox="0 0 50 50"><defs><style>.cls-1{fill:#fff;}</style></defs><g id="_Vaccine_for_corona" data-name="
Vaccine for corona"><path class="cls-1" d="M46.63,19.06a.5.5,0,0,0-.7,0l-5.45,5.45H36.2a3.16,3.16,0,0,0-2.4,1.08l-9.35,9.35-.77-.77a.5.5,0,0,0-.7,0,.49.49,0,0,0,0,.69L24.1,36h0l2.45,2.45L20,45l-2.45-2.45a.49.49,0,0,0-.69,0,.47.47,0,0,0,0,.69l2.68,2.68a.39.39,0,0,0,.23.23l2.68,2.69a.51.51,0,0,0,.7,0,.5.5,0,0,0,0-.7l-2.46-2.45,6.59-6.58,3.57,3.57a.52.52,0,0,0,.35.14.49.49,0,0,0,.34-.14.49.49,0,0,0,0-.69l-.77-.78,9.35-9.35a3.1,3.1,0,0,0,1.08-2.4V25.2l5.46-5.45A.49.49,0,0,0,46.63,19.06ZM40.19,29.48a2.15,2.15,0,0,1-.79,1.71l-2.08,2.07-1.89-1.89a.49.49,0,0,0-.69.69L36.63,34,34,36.62l-1.9-1.89a.49.49,0,0,0-.69.69l1.89,1.89-3.22,3.23-4.91-4.9,9.36-9.36a2.12,2.12,0,0,1,1.7-.79h4Z"/><path class="cls-1" d="M21,37.31a.49.49,0,0,0-.49-.49H4.84a.63.63,0,0,1-.63-.62V14.29H38v7.35a.49.49,0,0,0,1,0V6a1.61,1.61,0,0,0-1.61-1.61H31.73a.49.49,0,0,0,0,1h5.59A.63.63,0,0,1,38,6v7.34H4.21V6a.63.63,0,0,1,.63-.63h5.6a.49.49,0,0,0,0-1H4.84A1.61,1.61,0,0,0,3.23,6V36.2a1.61,1.61,0,0,0,1.61,1.6H20.53A.48.48,0,0,0,21,37.31Z"/><path class="cls-1" d="M29.49,8.7A.49.49,0,0,0,30,8.21V1.49a.49.49,0,0,0-1,0V8.21A.49.49,0,0,0,29.49,8.7Z"/><path class="cls-1" d="M14.92,5.34H27.25a.49.49,0,0,0,0-1H14.92a.49.49,0,0,0,0,1Z"/><path class="cls-1" d="M12.68,8.7a.49.49,0,0,0,.49-.49V1.49A.49.49,0,0,0,12.68,1a.48.48,0,0,0-.49.49V8.21A.48.48,0,0,0,12.68,8.7Z"/><path class="cls-1" d="M11.67,16.45a.22.22,0,0,0-.22-.22H7.7a.22.22,0,0,0-.22.22V20.2a.22.22,0,0,0,.22.22h3.75a.22.22,0,0,0,.22-.22Zm-1,3H8.46V17.21h2.23Z"/><path class="cls-1" d="M27.11,16.45a.21.21,0,0,0-.21-.22H23.14a.21.21,0,0,0-.21.22V20.2a.21.21,0,0,0,.21.22H26.9a.21.21,0,0,0,.21-.22Zm-1,3H23.91V17.21h2.22Z"/><path class="cls-1" d="M30.86,16.23a.22.22,0,0,0-.21.22V20.2a.22.22,0,0,0,.21.22h3.76a.22.22,0,0,0,.22-.22V16.45a.22.22,0,0,0-.22-.22Zm3,3.21H31.63V17.21h2.23Z"/><path class="cls-1" d="M15.42,20.42h3.76a.22.22,0,0,0,.21-.22V16.45a.22.22,0,0,0-.21-.22H15.42a.22.22,0,0,0-.22.22V20.2A.22.22,0,0,0,15.42,20.42Zm.76-3.21h2.23v2.23H16.18Z"/><path class="cls-1" d="M11.67,23.28a.22.22,0,0,0-.22-.21H7.7a.22.22,0,0,0-.22.21V27a.22.22,0,0,0,.22.22h3.75a.22.22,0,0,0,.22-.22Zm-1,3H8.46V24.05h2.23Z"/><path class="cls-1" d="M15.51,34.1h3.76a.21.21,0,0,0,.21-.22V30.12a.21.21,0,0,0-.21-.21H15.51a.21.21,0,0,0-.21.21v3.76A.21.21,0,0,0,15.51,34.1Zm.77-3.21H18.5v2.23H16.28Z"/><path class="cls-1" d="M11.45,29.91H7.7a.21.21,0,0,0-.22.21v3.76a.22.22,0,0,0,.22.22h3.75a.22.22,0,0,0,.22-.22V30.12A.21.21,0,0,0,11.45,29.91Zm-.76,3.21H8.46V30.89h2.23Z"/><path class="cls-1" d="M26.9,23.07H23.14a.21.21,0,0,0-.21.21V27a.21.21,0,0,0,.21.22H26.9a.21.21,0,0,0,.21-.22V23.28A.21.21,0,0,0,26.9,23.07Zm-.77,3.21H23.91V24.05h2.22Z"/><path class="cls-1" d="M15.2,27a.22.22,0,0,0,.22.22h3.76a.22.22,0,0,0,.21-.22V23.28a.22.22,0,0,0-.21-.21H15.42a.22.22,0,0,0-.22.21Zm1-3h2.23v2.23H16.18Z"/></g></svg>