<svg id="Layer_1" data-name="Layer 1" xmlns="http://www.w3.org/2000/svg" viewBox="0 0 50 50"><defs><style>.cls-1{fill:#fff;}</style></defs><path class="cls-1" d="M41.69,19.35l-.24-.29-.71.31a2.65,2.65,0,0,1-.36-.91,4.4,4.4,0,0,1,0-.77,16.4,16.4,0,0,0-.28-5,16.83,16.83,0,0,0-2.6-5.62.5.5,0,0,0-.7-.11.51.51,0,0,0-.1.7,16,16,0,0,1,2.42,5.24,15.31,15.31,0,0,1,.26,4.74,6.08,6.08,0,0,0,0,.91,3.33,3.33,0,0,0,.44,1.23l-6.06,2.6-5.06-.83a.5.5,0,0,0-.16,1l5.21.85h.09a.47.47,0,0,0,.17,0h0l6.51-2.79h0a.45.45,0,0,0,.25-.07.35.35,0,0,0,.11-.1l.25-.1a11.83,11.83,0,0,1,1.93,10.15,13.16,13.16,0,0,1-7,8.94c-1.1-1.27-4.21-5.55-6-8L32.84,26a.5.5,0,0,0-.23-.67.51.51,0,0,0-.67.22l-2.63,5.27-3.15-1.26a.5.5,0,0,0-.65.28.51.51,0,0,0,.28.65l3.44,1.37c.52.73,3.29,4.6,5.07,6.9l-2.82,2.18-2.32,7.44a.5.5,0,0,0,.32.63l.15,0a.5.5,0,0,0,.48-.35l2.23-7.14,2.58-2c.29.36.54.65.69.81l.24.23.31-.13a14.08,14.08,0,0,0,7.89-9.77A12.81,12.81,0,0,0,41.69,19.35Z"/><path class="cls-1" d="M21,20.17c1.13,0,1.74,0,2.25.83l2.52,1.74V19.13c0-1.79,0-3.65,3-4.62A5.14,5.14,0,0,0,31.6,8.73c2-1,5.4-4.47,5.4-7.23V1H23.13c-13,.27-17.59,7.61-17.59,14.39,0,6.16,2,12.16,3.13,15.37l.1.29c.15.44.68.7,1.3,1a7.85,7.85,0,0,1,.78.42v0c1.05,3.26,1.81,6.57-.41,11.17a.49.49,0,0,0,.24.66.41.41,0,0,0,.21.05.48.48,0,0,0,.45-.28c2.33-4.83,1.56-8.44.52-11.72l2.85-1.21a.5.5,0,0,0,.26-.66.5.5,0,0,0-.65-.26l-3.09,1.32a6.85,6.85,0,0,0-.72-.4,6,6,0,0,1-.8-.44l-.1-.29c-1.08-3.16-3.08-9-3.08-15C6.54,12.33,7.73,2.32,23.14,2H36c-.41,2.44-3.61,5.49-5.13,6l-.51.16.2.5a4,4,0,0,1-2.1,4.95c-3.63,1.18-3.63,3.81-3.63,5.55v1.74L24,20.38a3.16,3.16,0,0,0-3-1.21,2.53,2.53,0,0,0-2.64,2.63V25c0,1.52,1.41,2.91,4.18,4.14a.49.49,0,0,0,.66-.25.5.5,0,0,0-.25-.66c-2.32-1-3.59-2.17-3.59-3.23V21.8A1.54,1.54,0,0,1,21,20.17Z"/></svg>