<svg xmlns="http://www.w3.org/2000/svg" viewBox="0 0 50 50"><defs><style>.cls-1{fill:#fff;}</style></defs><title>icons</title><g id="Layer_1" data-name="Layer 1"><path class="cls-1" d="M41.65,33.33c-1.76-.89-8.42-2.88-9.65-3.27a7,7,0,0,1-1.73-3.17l0-.15.12-.1a13,13,0,0,0,4.31-6.72l0-.19h.2a1.6,1.6,0,0,0,1-.45,4.23,4.23,0,0,0,1.24-2.79A6.9,6.9,0,0,0,36.69,14,26,26,0,0,0,37,11C37,4.31,32.22,0,24.8,0S12.58,4.31,12.58,11a12.29,12.29,0,0,0,.3,2.81v.08l0,.08a4.77,4.77,0,0,0-.39,2.43,4.25,4.25,0,0,0,1.26,2.81,2.18,2.18,0,0,0,1,.44l.15,0,0,.15a13.17,13.17,0,0,0,4.41,6.72l.13.1,0,.16A6.68,6.68,0,0,1,17.72,30l-.06.05A66.57,66.57,0,0,0,8.14,33.1a7.18,7.18,0,0,0-4.05,6.62v2.05a4.86,4.86,0,0,0,2.63,4.37C10,47.9,15.89,50,25,50c9.27,0,15.06-2.1,18.28-3.86a4.86,4.86,0,0,0,2.63-4.37v-2A7.73,7.73,0,0,0,41.65,33.33ZM16.31,4.23c1.93-2,4.9-3.1,8.59-3.1,6.9,0,11.19,3.82,11.19,10,0,.52-.17,1.95-.17,1.95a3.88,3.88,0,0,0-1.08-.23A3.24,3.24,0,0,0,34,13a26.13,26.13,0,0,0-1.2-3.45,9,9,0,0,0-3.94-1.25,7.26,7.26,0,0,0-4.18,1.25,6,6,0,0,1-3.53,1A6.58,6.58,0,0,1,18.35,10,11,11,0,0,0,17,9.43c-.09,0-1.35,3.43-1.35,3.43a1.39,1.39,0,0,0-.57-.07,2.83,2.83,0,0,0-.92.19S14,11.71,14,11.11A9,9,0,0,1,16.31,4.23ZM15.77,19a.56.56,0,0,0-.29-.4,1.61,1.61,0,0,0-.49,0,.91.91,0,0,1-.56-.12,3,3,0,0,1-.93-2.13c-.11-1.3.33-2.38,1-2.52a1.82,1.82,0,0,1,1,.1.73.73,0,0,0,.6.12.22.22,0,0,0,.11,0c.13-.1.16-.31.22-.45s.57-1.83.91-2.64l.1-.25.25.12a7.42,7.42,0,0,0,3.26.79,6.8,6.8,0,0,0,4.14-1.28,6,6,0,0,1,3.5-1,7.55,7.55,0,0,1,3.41,1c.12.25,1,3,1.17,3.44a.56.56,0,0,0,.52.4A7.21,7.21,0,0,1,35,13.81c.69.14,1.13,1.22,1,2.52a3.39,3.39,0,0,1-.89,2.1.85.85,0,0,1-.6.15l-.2,0c-.21,0-.46.26-.46.4a11.43,11.43,0,0,1-4.5,7,8,8,0,0,1-4.63,1.51,7.68,7.68,0,0,1-4.57-1.51A12.75,12.75,0,0,1,15.77,19Zm8.46,30.07H24c-8.91-.31-14.28-2.37-16.76-3.65a3.93,3.93,0,0,1-2.08-3.51l-.12-2a6.53,6.53,0,0,1,3.52-5.75c1.64-.83,5.18-2.08,5.18-2.08L13,35.84l-.15,0a3.69,3.69,0,0,0-2.68,4l.32,2.55h0l.92-.24-.31-2.44a2.67,2.67,0,0,1,2.64-3,2.59,2.59,0,0,1,2.56,2.3l.33,2.47,1.12-.07-.32-2.55a3.55,3.55,0,0,0-3.15-3.14l-.26,0,.81-3.95,2.67-.68.12.32c.95,2.2,4.75,4.67,6.37,5.75l.29.19Zm.56-12.69-.14-.09c-2.63-1.66-5.57-4.08-6-5.46l-.05-.15.11-.12a7.94,7.94,0,0,0,1.68-3l.1-.28.26.14a9,9,0,0,0,4.18,1.1,8.7,8.7,0,0,0,4.17-1.1l.28-.15.09.31a7.45,7.45,0,0,0,1.68,3l.1.11,0,.14c-.46,1.38-3.61,3.8-6.25,5.46Zm20,5.58a4.06,4.06,0,0,1-2.21,3.53c-2.49,1.3-8,3.38-17,3.59h-.26V37.33l.12-.07C27,36.34,31.14,33.5,32,31.34l.08-.18,2.67.73,1,5.25a.74.74,0,0,1,.26.07h.14a1.7,1.7,0,0,0,.37-.1c.08,0,.17,0,.24,0l-.81-4.89a42.19,42.19,0,0,1,5.42,2A6.42,6.42,0,0,1,44.81,40Z"/><circle class="cls-1" cx="10.93" cy="42.51" r="0.83"/><circle class="cls-1" cx="17.13" cy="41.59" r="0.83"/><path class="cls-1" d="M36.65,36.93a2.57,2.57,0,1,0,2.57,2.57A2.57,2.57,0,0,0,36.65,36.93Zm0,4.14a1.57,1.57,0,1,1,1.57-1.57A1.57,1.57,0,0,1,36.65,41.07Z"/></g></svg>