<svg xmlns="http://www.w3.org/2000/svg" viewBox="0 0 50 50"><defs><style>.cls-1{fill:#fff;}</style></defs><g id="Layer_2" data-name="Layer 2"><path class="cls-1" d="M34.72,25H30.83a.48.48,0,0,1-.37-.17l-3-3.6a1.34,1.34,0,0,0-1.08-.51,1.74,1.74,0,0,0-1.2.5v0l-4.23,3.55a1,1,0,0,1-.65.25H17.47a.51.51,0,0,0-.47.38L16.45,28a.3.3,0,0,0,.22.36H21.8a1.3,1.3,0,0,0,.88-.31l3-2.54a.45.45,0,0,1,.33-.12.46.46,0,0,1,.37.16l2,2.4a1.22,1.22,0,0,0,1,.41h4.51a.46.46,0,0,0,.44-.37l.57-2.65A.29.29,0,0,0,34.72,25Z"/><path class="cls-1" d="M33.33,31.52H28.21a1.28,1.28,0,0,0-.9.3l-3,2.55a.5.5,0,0,1-.33.12.51.51,0,0,1-.37-.16l-2-2.4a1.2,1.2,0,0,0-1-.42H16.08a.46.46,0,0,0-.44.38l-.57,2.65a.29.29,0,0,0,.21.36h3.89a.46.46,0,0,1,.37.18l3,3.59a1.32,1.32,0,0,0,1.07.5,1.74,1.74,0,0,0,1.2-.5L29,35.12a1,1,0,0,1,.65-.24h2.83A.54.54,0,0,0,33,34.5l.56-2.62A.3.3,0,0,0,33.33,31.52Z"/><path class="cls-1" d="M43.32,10.85a.51.51,0,0,0-.5-.49H33.73V9.91a9.32,9.32,0,1,0-18.63,0v.45H7.18a.51.51,0,0,0-.5.49L5.53,46A3.36,3.36,0,0,0,8.89,49.5H41.11A3.36,3.36,0,0,0,44.47,46ZM24.42,1.5a8.37,8.37,0,0,1,8.31,8.41v.45H16.1V9.91A8.37,8.37,0,0,1,24.42,1.5ZM42.81,47.78a2.38,2.38,0,0,1-1.7.72H8.89a2.36,2.36,0,0,1-2.36-2.44l1.13-34.7H42.34l1.13,34.7A2.36,2.36,0,0,1,42.81,47.78Z"/></g></svg>