<svg id="Layer_1" data-name="Layer 1" xmlns="http://www.w3.org/2000/svg" viewBox="0 0 50 50"><defs><style>.cls-1{fill:#fff;}</style></defs><path class="cls-1" d="M45,8.77c-5.4,0-17.34-4.91-19.14-7.39L25.46.83l-.4.54c-1.79,2.49-13.73,7.4-19.14,7.4H5.44V29.88c0,3.26,3.21,7.38,9.54,12.26A62.36,62.36,0,0,0,25.34,48.8l.12,0,.12,0a62.36,62.36,0,0,0,10.36-6.66c6.33-4.88,9.54-9,9.54-12.26V8.77Zm-.48,21.11c0,6.71-16.93,17.07-19,17.93-2.13-.87-19-11.22-19-17.93V9.73C11.69,9.47,22.6,5.25,25.46,2.4c2.86,2.85,13.76,7.07,19,7.33Z"/><path class="cls-1" d="M31.65,29.92a7.71,7.71,0,0,1-1.18,1,.48.48,0,0,0-.11.68.51.51,0,0,0,.4.2.51.51,0,0,0,.28-.09,9.63,9.63,0,0,0,1.32-1.15.5.5,0,0,0,0-.69A.49.49,0,0,0,31.65,29.92Z"/><path class="cls-1" d="M26,15.94a8.14,8.14,0,0,1,2.62.56.57.57,0,0,0,.18,0,.5.5,0,0,0,.26-.08s0-.05.06-.07a.32.32,0,0,0,.12-.14l1.59-3.54.3.11a.51.51,0,0,0,.17,0,.48.48,0,0,0,.17-.94L30,11.35a.5.5,0,0,0-.63.3.48.48,0,0,0,.3.62l.28.1-1.38,3.07A9.28,9.28,0,0,0,26,15h0a.48.48,0,0,0-.48.47A.47.47,0,0,0,26,15.94Z"/><path class="cls-1" d="M31,17.37a.49.49,0,0,0,0,.69A7.84,7.84,0,0,1,32,19.12a.47.47,0,0,0,.39.19.52.52,0,0,0,.29-.09.49.49,0,0,0,.1-.68,9.68,9.68,0,0,0-1-1.18A.5.5,0,0,0,31,17.37Z"/><path class="cls-1" d="M24.73,32.67a8.46,8.46,0,0,1-2.62-.55.2.2,0,0,0-.1,0l-.09,0h0a.47.47,0,0,0-.33.14.56.56,0,0,1,0,.08.35.35,0,0,0-.05.08h0l-1.54,3.94-.59-.26a.48.48,0,0,0-.64.26A.49.49,0,0,0,19,37l2.07.89a.43.43,0,0,0,.19,0,.48.48,0,0,0,.19-.93l-.57-.25,1.38-3.55a9.45,9.45,0,0,0,2.47.46h0a.48.48,0,0,0,.48-.46A.48.48,0,0,0,24.73,32.67Z"/><path class="cls-1" d="M19.25,31.42a.46.46,0,0,0,.36-.16.49.49,0,0,0,0-.69,8,8,0,0,1-1.18-1.29.48.48,0,0,0-.68-.1.49.49,0,0,0-.1.68,9,9,0,0,0,1.32,1.44A.47.47,0,0,0,19.25,31.42Z"/><path class="cls-1" d="M16.14,22a9.42,9.42,0,0,0-.31,1.9.48.48,0,0,0,.46.51h0A.47.47,0,0,0,16.8,24a9,9,0,0,1,.28-1.71.49.49,0,1,0-.94-.25Z"/><path class="cls-1" d="M13.57,18.88a.54.54,0,0,0,.21.05.48.48,0,0,0,.44-.28l.34-.71,3.54,2,.26-.35a8.12,8.12,0,0,1,1.89-1.9.49.49,0,0,0,.11-.68.48.48,0,0,0-.68-.11,9.14,9.14,0,0,0-1.85,1.77L15,17.06l.32-.66a.49.49,0,0,0-.23-.65.5.5,0,0,0-.65.23l-1.08,2.25A.5.5,0,0,0,13.57,18.88Z"/><path class="cls-1" d="M14.45,28.12l4.73-1.47A.5.5,0,0,0,19.5,26a.49.49,0,0,0-.61-.32l-4.74,1.47-.25-.77a.49.49,0,0,0-.93.31l.4,1.21h0l.32,1a.49.49,0,0,0,.47.34l.15,0a.5.5,0,0,0,.31-.62Z"/><path class="cls-1" d="M21,23.6a.48.48,0,0,0,.49-.48V22.05a.48.48,0,0,0-.49-.48.47.47,0,0,0-.48.48v1.07A.47.47,0,0,0,21,23.6Z"/><path class="cls-1" d="M23,27.7a.48.48,0,0,0-.48.48v1.07a.49.49,0,0,0,1,0V28.18A.48.48,0,0,0,23,27.7Z"/><path class="cls-1" d="M24.55,25.14a.48.48,0,0,0,.48-.49V23.59a.48.48,0,0,0-.48-.49.49.49,0,0,0-.49.49v1.06A.49.49,0,0,0,24.55,25.14Z"/><path class="cls-1" d="M28.12,19.52a.49.49,0,0,0-.48.49v1.06a.49.49,0,1,0,1,0V20A.49.49,0,0,0,28.12,19.52Z"/><path class="cls-1" d="M28.15,25.12v1.06a.49.49,0,1,0,1,0V25.12a.49.49,0,1,0-1,0Z"/><path class="cls-1" d="M29.86,34.72l-.58.24-1.83-4.59a.48.48,0,0,0-.9.36l1.84,4.61-.66.27a.48.48,0,0,0-.26.64.5.5,0,0,0,.45.3.58.58,0,0,0,.18,0l1.09-.46h0l1-.43a.49.49,0,0,0-.38-.9Z"/><path class="cls-1" d="M36.6,20.39l-4.77,1.29a.49.49,0,0,0,.13,1l.13,0,4.78-1.3.15.51a.48.48,0,0,0,.47.36l.13,0a.48.48,0,0,0,.33-.6l-.64-2.23a.47.47,0,0,0-.6-.33.49.49,0,0,0-.33.6Z"/><path class="cls-1" d="M21,13.77l.12,0,.65-.15,1.07,4.82a.49.49,0,0,0,.48.39l.1,0a.47.47,0,0,0,.37-.58L22.7,13.37l.65-.15a.49.49,0,0,0-.23-1L22,12.54h0l-1.14.27a.49.49,0,0,0,.11,1Z"/><path class="cls-1" d="M34.43,27.09a9.34,9.34,0,0,0,.45-2.39.49.49,0,1,0-1-.05,8.36,8.36,0,0,1-.54,2.55s0,.06,0,.09,0,.06,0,.09a.29.29,0,0,1,0,.09.38.38,0,0,0,0,.1l0,.07a.22.22,0,0,0,0,.08l.08.05.08.05,3.82,1.52-.23.49a.5.5,0,0,0,.24.65.52.52,0,0,0,.21,0,.48.48,0,0,0,.44-.28l.93-2a.49.49,0,0,0-.24-.64.48.48,0,0,0-.64.24l-.31.66Z"/></svg>