<svg id="Layer_1" data-name="Layer 1" xmlns="http://www.w3.org/2000/svg" viewBox="0 0 50 50"><defs><style>.cls-1{fill:#fff;}</style></defs><path class="cls-1" d="M29.49,46.9a1.63,1.63,0,0,1-1.12-.44l-5-4.56H7.15A6.12,6.12,0,0,1,1,35.82V22.7a6.15,6.15,0,0,1,6.15-6.13H17.42a.49.49,0,0,1,0,1H7.15A5.17,5.17,0,0,0,2,22.7V35.82a5.14,5.14,0,0,0,5.17,5.1H23.78L29,45.74a.68.68,0,0,0,.72.13.65.65,0,0,0,.39-.61V31.58a.49.49,0,0,1,.49-.49.48.48,0,0,1,.49.49V45.26a1.6,1.6,0,0,1-1.63,1.64ZM20.56,33.4a1.55,1.55,0,0,1-.67-.14,1.65,1.65,0,0,1-1-1.51V9.19A6.13,6.13,0,0,1,25.05,3.1H42.91A6.09,6.09,0,0,1,49,9.19V22.31a6.11,6.11,0,0,1-6.09,6.12H26.68l-.41.37L21.68,33A1.67,1.67,0,0,1,20.56,33.4Zm-.7-16.34V31.75a.72.72,0,0,0,.42.62.71.71,0,0,0,.74-.12l4.58-4.18c.26-.23.52-.47.63-.54l.1-.07H42.91A5.13,5.13,0,0,0,48,22.31V9.19a5.12,5.12,0,0,0-5.11-5.12H25.05a5.16,5.16,0,0,0-5.19,5.12Z"/><path class="cls-1" d="M8.34,27.61a1.22,1.22,0,1,0,0,2.43h.1a1.22,1.22,0,0,0,0-2.43Z"/><path class="cls-1" d="M12.56,27.61a1.22,1.22,0,1,0,0,2.43h.1a1.22,1.22,0,0,0,0-2.43Z"/><path class="cls-1" d="M34.31,17.61h0a.81.81,0,0,1-.79-.91,3.06,3.06,0,0,1,.18-.82,4.2,4.2,0,0,1,1-1.15,8.86,8.86,0,0,0,.94-.83,1.16,1.16,0,0,0-.19-1.59,1.59,1.59,0,0,0-1.12-.37,1.68,1.68,0,0,0-1.14.39,1.57,1.57,0,0,0-.45.61.81.81,0,0,1-.82.5l-.11,0a.8.8,0,0,1-.65-1.11,3.07,3.07,0,0,1,.72-.94,3.45,3.45,0,0,1,2.37-.8,3.58,3.58,0,0,1,2.46.81,2.43,2.43,0,0,1,.91,1.88,2.09,2.09,0,0,1-.33,1.12,7,7,0,0,1-1.44,1.44,2.74,2.74,0,0,0-.7.76,1.31,1.31,0,0,0-.1.36A.79.79,0,0,1,34.31,17.61Zm-.86,1.52h0a.89.89,0,0,1,.89-.9h0a.9.9,0,0,1,.9.9h0a.89.89,0,0,1-.9.89h0A.89.89,0,0,1,33.45,19.13Z"/></svg>